<svg xmlns="http://www.w3.org/2000/svg" xml:space="preserve" viewBox="0 0 1400 973.33331">
  <defs>
    <clipPath id="a" clipPathUnits="userSpaceOnUse">
      <path d="M0 730h1050V0H0Z"/>
    </clipPath>
  </defs>
  <g clip-path="url(#a)" transform="matrix(1.33333 0 0 -1.33333 0 973.33333)">
    <path fill="#110f0d" d="M391.8509 237.0096c-17.971-18.717-36.218-37.174-55.224-54.914-55.696-51.979-117.669-102.148-187.651-133.453-19.495-8.721-41.826-17.632-63.293-19.71-27.87-2.698-38.006 19.341-37.865 43.778.248 43.057 34.213 79.883 61.619 109.447 104.067 112.255 234.587 197.79 332.642 315.46-2.702-89.057-26.562-174.768-50.228-260.608m413.51 192.724c-12.161-8.059 17.693-3.939 22.982-.435 64.049 42.446 120.907 94.651 167.681 155.69 19.646 25.642 47.603 58.408 44.979 93.033-2.267 29.934-30.408 42.329-56.964 43.387-69.263 2.761-139.859-38.721-194.259-77.192-58.063-41.061-110.405-89.428-159.448-140.791-68.948-72.212-131.836-150.097-198.914-224.034 22.967 84.471 43.392 169.271 40.876 257.786-.198 6.925-27.417-3.294-29.94-6.783-89.76-124.069-218.512-210.152-326.663-316.441-25.733-25.29-52.183-51.599-72.731-81.404-18.415-26.71-36.693-67.862-18.023-99.279 15.879-26.724 54.782-15.849 79.097-9.816 35.763 8.873 69.747 23.814 101.765 41.891 65.76 37.129 123.085 83.834 176.15 135.392-14.391-53.339-27.57-106.912-34.387-161.56-.514-4.134 27.772.638 29.94 6.783 4.856 13.754 10.993 26.718 18.375 38.826-.998-14.922 1.667-30.147 8.535-44.416 3.228-6.709 25.276 1.641 28.697 5.336 18.824 20.331 36.87 41.311 54.284 62.819.591-10.816 1.422-21.613 3.331-31.958 2.415-13.093 9.3-19.587 22.422-21.555 19.978-2.996 41.843-.661 61.975-.665 23.352-.003 46.706-.007 70.057-.01 92.116-.014 184.229-.029 276.342-.043 5.79-.001 17.223 1.091 21.333 5.716 2.91 3.272 5.755 6.15-1.647 6.151-84.331.013-168.659.027-252.99.04-41.516.006-83.032.012-124.547.019-19.75.003-39.645-2.942-43.029 20.992-2.733 19.33-3.178 39.279-4.728 58.742-.576 7.231-27.387-3.379-29.942-6.783-18.419-24.56-37.74-48.365-57.945-71.434-5.645 24.99-.053 50.797 16.643 71.833 3.065 3.862-9.747 2.824-10.112 2.79-6.232-.568-13.407-2.941-18.357-6.827-10.382-8.146-19.778-17.174-28.324-26.868 8.88 44.061 20.7 87.607 32.687 131.102 134.845 141.415 247.007 308.777 411.567 417.288 36.711 24.205 84.116 53.364 129.669 52.529 19.818-.364 39.781-8.435 46.765-28.46 6.988-20.03-2.265-41.592-12.39-58.863-45.333-77.327-116.672-143.396-190.812-192.528"/>
  </g>
</svg>

